<svg xmlns="http://www.w3.org/2000/svg" viewBox="0 0 640 420" role="img" aria-label="アーチデザイン工房">
  <title>アーチデザイン工房 / ARCH DESIGN KOBO</title>
  <g transform="translate(160,4)">
    <g fill="none" stroke-linecap="butt">
      <path d="M58 168 A110 78 0 0 1 262 168" stroke="#E53935" stroke-width="3.2"/>
      <path d="M64 168 A104 73 0 0 1 256 168" stroke="#FB8C00" stroke-width="3.2"/>
      <path d="M70 168 A98 68 0 0 1 250 168" stroke="#FDD835" stroke-width="3.2"/>
      <path d="M76 168 A92 63 0 0 1 244 168" stroke="#43A047" stroke-width="3.2"/>
      <path d="M82 168 A86 58 0 0 1 238 168" stroke="#26C6DA" stroke-width="3.2"/>
      <path d="M88 168 A80 53 0 0 1 232 168" stroke="#1E88E5" stroke-width="3.2"/>
      <path d="M94 168 A74 48 0 0 1 226 168" stroke="#8E24AA" stroke-width="3.2"/>
    </g>
    <line x1="48" y1="170" x2="272" y2="170" stroke="#1A237E" stroke-width="6" stroke-linecap="square"/>
    <path fill="#1A237E" d="M160 28 L112 168 H90 L152 42 Z"/>
    <path fill="#1A237E" d="M160 28 L208 168 H230 L168 42 Z"/>
  </g>
  <text x="320" y="268" text-anchor="middle" fill="#1A237E" font-family="Yu Gothic, Hiragino Sans, Meiryo, sans-serif" font-size="40" font-weight="700" letter-spacing="0.04em">アーチデザイン工房</text>
  <text x="320" y="318" text-anchor="middle" fill="#1A237E" font-family="Segoe UI, Helvetica, Arial, sans-serif" font-size="20" font-weight="600" letter-spacing="0.28em">ARCH DESIGN KOBO</text>
</svg>
